<?xml version="1.0" standalone="no"?>
<!DOCTYPE svg PUBLIC "-//W3C//DTD SVG 20010904//EN"
 "http://www.w3.org/TR/2001/REC-SVG-20010904/DTD/svg10.dtd">
<svg version="1.0" xmlns="http://www.w3.org/2000/svg"
 width="512.000000pt" height="512.000000pt" viewBox="0 0 512.000000 512.000000"
 preserveAspectRatio="xMidYMid meet">
<metadata>
Created by potrace 1.16, written by Peter Selinger 2001-2019
</metadata>
<g transform="translate(0.000000,512.000000) scale(0.100000,-0.100000)"
fill="#000000" stroke="none">
<path d="M2695 5042 c-69 -43 -2652 -1916 -2672 -1938 -28 -31 -31 -93 -5
-122 16 -20 2641 -1910 2681 -1932 26 -13 77 -13 103 1 46 25 48 45 48 589 l0
510 50 0 c154 0 412 -49 570 -107 351 -131 597 -342 730 -625 64 -138 75 -191
75 -373 -1 -159 -1 -160 -39 -273 -61 -177 -160 -331 -329 -509 -50 -52 -69
-79 -69 -100 -2 -73 35 -103 130 -103 57 0 63 3 153 66 523 370 844 827 965
1375 26 116 28 140 28 364 1 256 -6 314 -60 506 -69 251 -210 525 -366 714
-383 464 -911 745 -1557 830 -63 8 -142 15 -175 15 -34 0 -71 3 -83 6 l-22 6
-3 527 c-3 566 -2 556 -55 580 -34 16 -64 13 -98 -7z"/>
</g>
</svg>
