<?xml version="1.0" standalone="no"?>
<!DOCTYPE svg PUBLIC "-//W3C//DTD SVG 20010904//EN"
 "http://www.w3.org/TR/2001/REC-SVG-20010904/DTD/svg10.dtd">
<svg version="1.0" xmlns="http://www.w3.org/2000/svg"
 width="512.000000pt" height="512.000000pt" viewBox="0 0 512.000000 512.000000"
 preserveAspectRatio="xMidYMid meet">
<metadata>
Created by potrace 1.16, written by Peter Selinger 2001-2019
</metadata>
<g transform="translate(0.000000,512.000000) scale(0.100000,-0.100000)"
fill="#000000" stroke="none">
<path d="M2546 4981 l-139 -139 73 -84 c322 -372 445 -873 329 -1343 -70 -282
-167 -452 -429 -750 -293 -333 -441 -643 -501 -1050 -17 -116 -17 -414 0 -530
58 -389 214 -727 469 -1012 35 -40 70 -73 76 -73 6 0 74 63 150 139 l139 139
-73 84 c-243 280 -371 620 -371 989 0 237 41 425 141 645 64 142 136 244 300
429 136 152 192 225 259 333 140 224 233 481 272 747 18 117 17 425 0 535 -63
397 -212 717 -469 1008 -35 39 -69 72 -76 72 -6 0 -74 -63 -150 -139z"/>
</g>
</svg>
