<?xml version="1.0" standalone="no"?>
<!DOCTYPE svg PUBLIC "-//W3C//DTD SVG 20010904//EN"
 "http://www.w3.org/TR/2001/REC-SVG-20010904/DTD/svg10.dtd">
<svg version="1.0" xmlns="http://www.w3.org/2000/svg"
 width="512.000000pt" height="512.000000pt" viewBox="0 0 512.000000 512.000000"
 preserveAspectRatio="xMidYMid meet">
<metadata>
Created by potrace 1.16, written by Peter Selinger 2001-2019
</metadata>
<g transform="translate(0.000000,512.000000) scale(0.100000,-0.100000)"
fill="#000000" stroke="none">
<path d="M204 4799 c-67 -26 -132 -83 -169 -150 l-30 -54 -3 -1247 -2 -1248
2560 0 2560 0 -2 1248 -3 1247 -30 54 c-37 68 -102 125 -171 151 -54 20 -66
20 -2357 19 -2269 0 -2303 0 -2353 -20z m1606 -965 c66 -27 103 -101 85 -171
-4 -18 -68 -90 -173 -196 l-167 -167 162 -163 c88 -89 166 -172 172 -184 48
-95 -52 -217 -162 -196 -43 8 -491 450 -508 501 -25 75 -16 88 234 340 261
261 273 270 357 236z m1032 -16 c36 -25 61 -73 61 -118 0 -26 -58 -149 -217
-468 -229 -458 -231 -460 -308 -478 -41 -8 -117 32 -142 74 -38 67 -34 77 200
542 l219 435 45 23 c51 26 96 23 142 -10z m558 22 c27 -7 91 -66 267 -242 250
-252 259 -265 234 -340 -17 -51 -465 -493 -508 -501 -110 -21 -210 101 -162
196 6 12 84 95 172 184 l162 163 -167 167 c-105 106 -169 178 -173 196 -18 69
16 139 80 168 47 22 49 22 95 9z"/>
<path d="M2 1623 c3 -173 5 -192 26 -235 32 -65 94 -125 160 -156 l57 -27
2315 0 2315 0 55 26 c66 31 131 94 162 157 21 43 23 62 26 235 l3 187 -2561 0
-2561 0 3 -187z"/>
<path d="M1723 763 l-50 -148 -186 -5 c-167 -5 -188 -7 -213 -26 -45 -33 -67
-70 -71 -121 -5 -59 18 -108 66 -140 l34 -23 1257 0 1257 0 34 23 c90 60 91
186 3 253 l-37 29 -185 5 -185 5 -50 148 -49 147 -788 0 -788 0 -49 -147z"/>
</g>
</svg>
