<?xml version="1.0" standalone="no"?>
<!DOCTYPE svg PUBLIC "-//W3C//DTD SVG 20010904//EN"
 "http://www.w3.org/TR/2001/REC-SVG-20010904/DTD/svg10.dtd">
<svg version="1.0" xmlns="http://www.w3.org/2000/svg"
 width="512.000000pt" height="512.000000pt" viewBox="0 0 512.000000 512.000000"
 preserveAspectRatio="xMidYMid meet">
<metadata>
Created by potrace 1.16, written by Peter Selinger 2001-2019
</metadata>
<g transform="translate(0.000000,512.000000) scale(0.100000,-0.100000)"
fill="#000000" stroke="none">
<path d="M2235 5105 c-462 -60 -885 -237 -1255 -523 -117 -91 -316 -287 -413
-407 -276 -342 -459 -746 -537 -1186 -28 -156 -39 -531 -21 -702 82 -766 505
-1455 1156 -1880 324 -211 689 -344 1085 -393 152 -19 472 -18 630 1 1160 144
2081 1065 2225 2225 20 162 20 478 0 640 -92 744 -509 1411 -1140 1826 -329
216 -695 350 -1085 399 -152 18 -501 18 -645 0z m-588 -1106 c79 -30 153 -103
183 -184 42 -114 13 -251 -72 -332 -60 -58 -133 -86 -230 -91 -105 -5 -173 13
-244 67 -196 148 -145 461 88 542 76 26 200 25 275 -2z m1877 -854 c115 -24
228 -86 312 -170 60 -60 81 -91 122 -176 96 -198 102 -259 102 -976 l0 -573
-304 0 -305 0 -4 563 c-4 611 -5 620 -62 726 -57 104 -145 147 -284 139 -126
-8 -225 -76 -288 -198 l-28 -55 -3 -587 -3 -588 -304 0 -305 0 0 935 0 935
305 0 305 0 0 -130 c0 -71 3 -130 8 -130 4 0 22 23 41 51 72 105 207 198 341
233 72 19 266 20 354 1z m-1714 -960 l0 -935 -305 0 -305 0 0 935 0 935 305 0
305 0 0 -935z"/>
</g>
</svg>
