<?xml version="1.0" standalone="no"?>
<!DOCTYPE svg PUBLIC "-//W3C//DTD SVG 20010904//EN"
 "http://www.w3.org/TR/2001/REC-SVG-20010904/DTD/svg10.dtd">
<svg version="1.0" xmlns="http://www.w3.org/2000/svg"
 width="512.000000pt" height="512.000000pt" viewBox="0 0 512.000000 512.000000"
 preserveAspectRatio="xMidYMid meet">
<metadata>
Created by potrace 1.16, written by Peter Selinger 2001-2019
</metadata>
<g transform="translate(0.000000,512.000000) scale(0.100000,-0.100000)"
fill="#000000" stroke="none">
<path d="M2235 5101 c-65 -40 -94 -99 -95 -193 l0 -58 360 0 360 0 0 48 c-1
99 -26 156 -90 200 -32 21 -41 22 -269 22 -212 0 -239 -2 -266 -19z"/>
<path d="M2140 4595 l0 -95 360 0 360 0 0 95 0 95 -360 0 -360 0 0 -95z"/>
<path d="M1180 4285 l0 -315 90 0 90 0 0 315 0 315 -90 0 -90 0 0 -315z"/>
<path d="M2069 4411 c-76 -24 -142 -85 -169 -158 -18 -48 -20 -79 -20 -271 0
-242 -9 -302 -61 -403 -41 -82 -103 -146 -218 -226 -89 -62 -301 -257 -322
-294 -8 -15 -4 -17 29 -13 20 3 156 -13 302 -35 251 -37 265 -40 287 -65 29
-34 29 -36 -2 -246 -14 -95 -25 -178 -25 -185 0 -7 12 -27 26 -44 21 -26 33
-31 68 -31 39 0 56 10 190 110 161 122 184 134 220 120 29 -10 354 -437 366
-479 4 -14 4 -36 -1 -48 -4 -12 -80 -76 -167 -142 -102 -76 -162 -128 -165
-143 -12 -42 -7 -66 16 -93 21 -25 36 -29 216 -55 201 -30 236 -42 247 -85 3
-13 -11 -146 -32 -296 -33 -243 -40 -274 -62 -300 -30 -36 -40 -36 -261 -4
-94 13 -178 22 -188 18 -41 -14 -63 -46 -63 -88 0 -38 11 -56 108 -186 60 -79
114 -154 121 -166 17 -34 4 -69 -43 -109 l-41 -36 150 6 c228 8 397 49 605
147 826 391 1148 1390 708 2199 -105 193 -296 405 -484 537 -123 87 -182 146
-223 222 -51 96 -61 160 -61 402 0 261 -8 298 -79 369 -80 80 -84 80 -545 79
-221 0 -413 -4 -427 -8z m511 -391 l0 -130 -80 0 -80 0 0 130 0 130 80 0 80 0
0 -130z m5 -347 c27 -176 61 -250 165 -354 68 -69 88 -83 214 -143 76 -36 168
-86 205 -110 278 -179 472 -472 535 -806 20 -106 21 -311 1 -426 -53 -303
-221 -578 -469 -765 -43 -33 -79 -59 -80 -57 -2 2 -21 33 -44 69 l-41 67 68
50 c511 381 563 1148 107 1597 -100 99 -180 152 -366 242 -156 76 -231 132
-309 232 -83 108 -150 283 -151 394 l0 47 80 0 79 0 6 -37z"/>
<path d="M386 4246 c-31 -35 -56 -67 -55 -72 0 -9 511 -436 528 -442 4 -1 34
29 66 67 l57 71 -29 24 c-250 210 -499 416 -505 416 -3 0 -31 -29 -62 -64z"/>
<path d="M3905 4058 c-2 -7 -13 -60 -25 -118 -26 -129 -54 -181 -113 -209 -79
-38 -115 -27 -274 83 l-85 59 -95 -95 -95 -96 11 -35 c24 -70 88 -144 191
-218 55 -39 102 -75 106 -80 12 -20 32 -7 63 40 87 135 268 231 434 231 125
-1 263 -58 354 -148 167 -164 206 -398 102 -611 -60 -122 -195 -229 -334 -266
-32 -8 -60 -16 -62 -19 -2 -2 7 -48 21 -101 14 -54 29 -120 32 -147 4 -27 10
-50 14 -53 4 -2 12 20 19 50 24 108 85 159 181 153 50 -4 67 -11 163 -78 l108
-74 84 85 85 84 -70 100 c-98 140 -110 192 -60 273 29 48 69 67 188 92 59 12
115 24 125 26 15 5 17 19 17 113 l0 108 -131 28 c-120 26 -135 32 -169 64 -43
41 -66 103 -56 153 3 19 40 83 81 143 l76 109 -84 84 -83 83 -112 -75 c-61
-41 -126 -78 -146 -81 -45 -9 -99 9 -142 47 -37 33 -51 71 -80 221 l-17 87
-109 0 c-78 0 -110 -4 -113 -12z"/>
<path d="M210 3360 l0 -90 310 0 310 0 0 90 0 90 -310 0 -310 0 0 -90z"/>
<path d="M1175 2917 c-60 -92 -155 -281 -155 -309 0 -46 91 -63 135 -25 25 21
29 36 55 217 16 107 27 196 25 198 -2 2 -29 -34 -60 -81z"/>
<path d="M1385 2858 c-2 -7 -11 -65 -19 -128 -21 -150 -30 -181 -69 -232 -73
-96 -208 -128 -313 -75 -58 30 -77 50 -174 180 -40 53 -77 97 -82 97 -5 0 -71
-47 -148 -105 l-140 -105 88 -118 c105 -140 117 -167 117 -252 -1 -75 -25
-130 -77 -179 -77 -72 -147 -84 -328 -56 -161 25 -142 42 -169 -156 -14 -99
-20 -173 -15 -178 5 -4 63 -16 129 -25 154 -21 185 -30 237 -69 91 -68 124
-200 78 -305 -27 -61 -44 -78 -173 -174 -59 -44 -107 -85 -107 -91 0 -7 146
-210 206 -285 1 -2 55 36 121 85 141 106 168 118 253 118 80 -1 131 -25 187
-89 68 -77 75 -129 44 -336 -10 -69 -18 -125 -17 -126 0 0 81 -12 179 -26
l178 -24 4 20 c3 12 12 75 21 141 8 66 24 138 33 161 68 154 252 203 392 103
16 -11 70 -75 120 -140 l90 -119 142 107 c78 58 143 107 145 109 2 1 -39 59
-92 130 -103 138 -124 188 -112 270 16 122 129 223 248 224 42 0 226 -23 284
-35 19 -4 22 5 44 171 18 132 21 177 12 183 -6 4 -69 15 -139 25 -70 9 -146
25 -168 35 -157 70 -205 251 -104 393 12 17 73 68 136 115 62 46 113 89 113
94 0 5 -47 72 -105 149 l-105 140 -126 -94 c-78 -58 -143 -99 -170 -106 -95
-27 -211 14 -270 93 -60 80 -65 126 -35 325 12 87 15 125 7 127 -17 5 -309 45
-329 45 -10 0 -19 -6 -22 -12z m120 -813 c88 -23 173 -73 242 -142 205 -204
204 -522 -2 -728 -103 -103 -225 -155 -365 -155 -140 0 -262 52 -365 155 -206
206 -207 524 -2 728 134 133 319 187 492 142z"/>
<path d="M4660 1604 c-184 -47 -336 -87 -338 -88 -6 -7 41 -176 49 -176 5 0
164 39 354 86 277 70 345 90 345 103 0 9 -8 48 -18 86 -14 55 -22 70 -38 72
-10 1 -170 -37 -354 -83z"/>
<path d="M4250 989 c-29 -39 -48 -75 -43 -79 19 -18 615 -441 618 -438 49 62
105 151 99 157 -31 27 -605 431 -613 431 -5 0 -33 -32 -61 -71z"/>
<path d="M3930 738 c-19 -5 -52 -14 -72 -19 -21 -5 -38 -16 -38 -24 0 -16 171
-688 177 -694 4 -5 152 28 169 38 7 4 -20 125 -80 359 -71 277 -93 352 -105
351 -9 0 -32 -5 -51 -11z"/>
</g>
</svg>
